<svg width="80" height="80" viewBox="0 0 80 80" xmlns="http://www.w3.org/2000/svg">
  <defs>
    <!-- 全息渐变背景 -->
    <radialGradient id="holoBg" cx="0.3" cy="0.3">
      <stop offset="0%" stop-color="#1a1a2e"/>
      <stop offset="50%" stop-color="#16213e"/>
      <stop offset="100%" stop-color="#0f0f23"/>
    </radialGradient>
    
    <!-- 霓虹人像渐变 -->
    <linearGradient id="holoGradient" x1="0%" y1="0%" x2="100%" y2="100%">
      <stop offset="0%" stop-color="#00ffff"/>
      <stop offset="50%" stop-color="#0099ff"/>
      <stop offset="100%" stop-color="#ff00ff"/>
    </linearGradient>
    
    <!-- 发光滤镜 -->
    <filter id="holoGlow" x="-50%" y="-50%" width="200%" height="200%">
      <feGaussianBlur stdDeviation="2" result="coloredBlur"/>
      <feMerge> 
        <feMergeNode in="coloredBlur"/>
        <feMergeNode in="SourceGraphic"/>
      </feMerge>
    </filter>
    
    <!-- 强烈发光 -->
    <filter id="strongHolo" x="-100%" y="-100%" width="300%" height="300%">
      <feGaussianBlur stdDeviation="3" result="coloredBlur"/>
      <feMerge> 
        <feMergeNode in="coloredBlur"/>
        <feMergeNode in="SourceGraphic"/>
      </feMerge>
    </filter>
    
    <!-- 动画效果 -->
    <style>
      .scan { 
        animation: scan 3s ease-in-out infinite; 
      }
      .flicker { 
        animation: flicker 2s ease-in-out infinite; 
      }
      .orbit { 
        animation: orbit 4s linear infinite; 
        transform-origin: 40px 40px;
      }
      @keyframes scan { 
        0%, 100% { transform: translateY(60px); opacity: 0; } 
        50% { transform: translateY(20px); opacity: 1; } 
      }
      @keyframes flicker { 
        0%, 100% { opacity: 0.6; } 
        50% { opacity: 1; } 
      }
      @keyframes orbit { 
        from { transform: rotate(0deg); } 
        to { transform: rotate(360deg); } 
      }
    </style>
  </defs>
  
  <!-- 旋转轨道环 -->
  <g class="orbit">
    <circle cx="40" cy="40" r="37" fill="none" stroke="#00ffff" stroke-width="1" opacity="0.3" stroke-dasharray="8,4"/>
    <circle cx="77" cy="40" r="2" fill="#00ffff" filter="url(#holoGlow)"/>
    <circle cx="3" cy="40" r="1.5" fill="#ff00ff" filter="url(#holoGlow)"/>
  </g>
  
  <!-- 主背景 -->
  <circle cx="40" cy="40" r="36" fill="url(#holoBg)" filter="url(#strongHolo)"/>
  <circle cx="40" cy="40" r="36" fill="none" stroke="url(#holoGradient)" stroke-width="2" filter="url(#holoGlow)"/>
  
  <!-- 全息人像 -->
  <g fill="none" stroke="url(#holoGradient)" stroke-width="2" filter="url(#holoGlow)">
    <!-- 头部轮廓 - 线条风格 -->
    <ellipse cx="40" cy="30" rx="11" ry="13"/>
    
    <!-- 身体轮廓 -->
    <path d="M40,48 C30,48 22,54 20,62 L20,68 C20,70 22,72 24,72 L56,72 C58,72 60,70 60,68 L60,62 C58,54 50,48 40,48 Z"/>
  </g>
  
  <!-- 全息填充效果 -->
  <g fill="url(#holoGradient)" opacity="0.2">
    <ellipse cx="40" cy="30" rx="11" ry="13"/>
    <path d="M40,48 C30,48 22,54 20,62 L20,68 C20,70 22,72 24,72 L56,72 C58,72 60,70 60,68 L60,62 C58,54 50,48 40,48 Z"/>
  </g>
  
  <!-- 扫描线效果 -->
  <g class="scan">
    <line x1="10" y1="25" x2="70" y2="25" stroke="#00ffff" stroke-width="1" opacity="0.8"/>
    <line x1="10" y1="35" x2="70" y2="35" stroke="#00ff00" stroke-width="1" opacity="0.6"/>
    <line x1="10" y1="45" x2="70" y2="45" stroke="#ff00ff" stroke-width="1" opacity="0.4"/>
  </g>
  
  <!-- 面部识别点 -->
  <g class="flicker">
    <circle cx="35" cy="28" r="1" fill="#00ffff" filter="url(#holoGlow)"/>
    <circle cx="45" cy="28" r="1" fill="#00ffff" filter="url(#holoGlow)"/>
    <circle cx="40" cy="32" r="0.8" fill="#ff00ff" filter="url(#holoGlow)"/>
    <circle cx="40" cy="36" r="0.6" fill="#00ff00" filter="url(#holoGlow)"/>
  </g>
  
  <!-- 数据流线条 -->
  <g stroke="#00ffff" stroke-width="0.5" opacity="0.6" fill="none" class="flicker">
    <path d="M15,15 Q25,10 35,15"/>
    <path d="M45,15 Q55,10 65,15"/>
    <path d="M15,65 Q25,70 35,65"/>
    <path d="M45,65 Q55,70 65,65"/>
  </g>
  
  <!-- 角落数据点 -->
  <g class="flicker">
    <rect x="8" y="8" width="3" height="3" fill="#00ffff" opacity="0.8"/>
    <rect x="69" y="8" width="3" height="3" fill="#ff00ff" opacity="0.8"/>
    <rect x="8" y="69" width="3" height="3" fill="#00ff00" opacity="0.8"/>
    <rect x="69" y="69" width="3" height="3" fill="#ffff00" opacity="0.8"/>
  </g>
  
  <!-- 中心全息投影效果 -->
  <circle cx="40" cy="40" r="20" fill="none" stroke="url(#holoGradient)" stroke-width="0.5" opacity="0.3" class="flicker"/>
</svg>