<svg width="120" height="120" viewBox="0 0 120 120" xmlns="http://www.w3.org/2000/svg">
  <defs>
    <!-- 霓虹渐变背景 -->
    <radialGradient id="neonBg" cx="0.3" cy="0.3">
      <stop offset="0%" stop-color="#00d4ff"/>
      <stop offset="30%" stop-color="#0099ff"/>
      <stop offset="70%" stop-color="#0066ff"/>
      <stop offset="100%" stop-color="#003399"/>
    </radialGradient>
    
    <!-- 皇冠霓虹渐变 -->
    <linearGradient id="crownNeon" x1="0%" y1="0%" x2="100%" y2="100%">
      <stop offset="0%" stop-color="#ff6b35"/>
      <stop offset="50%" stop-color="#ff8f4a"/>
      <stop offset="100%" stop-color="#ffaa00"/>
    </linearGradient>
    
    <!-- 发光滤镜 -->
    <filter id="glow" x="-50%" y="-50%" width="200%" height="200%">
      <feGaussianBlur stdDeviation="3" result="coloredBlur"/>
      <feMerge> 
        <feMergeNode in="coloredBlur"/>
        <feMergeNode in="SourceGraphic"/>
      </feMerge>
    </filter>
    
    <!-- 强烈发光 -->
    <filter id="strongGlow" x="-100%" y="-100%" width="300%" height="300%">
      <feGaussianBlur stdDeviation="4" result="coloredBlur"/>
      <feMerge> 
        <feMergeNode in="coloredBlur"/>
        <feMergeNode in="SourceGraphic"/>
      </feMerge>
    </filter>
    
    <!-- 旋转动画 -->
    <style>
      .rotate { 
        animation: rotate 8s linear infinite; 
        transform-origin: 60px 60px;
      }
      .pulse { 
        animation: pulse 2s ease-in-out infinite; 
      }
      .sparkle { 
        animation: sparkle 1.5s ease-in-out infinite; 
      }
      @keyframes rotate { 
        from { transform: rotate(0deg); } 
        to { transform: rotate(360deg); } 
      }
      @keyframes pulse { 
        0%, 100% { opacity: 0.6; transform: scale(1); } 
        50% { opacity: 1; transform: scale(1.1); } 
      }
      @keyframes sparkle { 
        0%, 100% { opacity: 0.3; } 
        50% { opacity: 1; } 
      }
    </style>
  </defs>
  
  <!-- 外圈旋转光环 -->
  <g class="rotate">
    <circle cx="60" cy="60" r="56" fill="none" stroke="url(#neonBg)" stroke-width="2" opacity="0.3" stroke-dasharray="10,5"/>
    <circle cx="60" cy="60" r="52" fill="none" stroke="#00ffff" stroke-width="1" opacity="0.6" stroke-dasharray="5,10"/>
  </g>
  
  <!-- 主背景 - 多层发光效果 -->
  <circle cx="60" cy="60" r="48" fill="url(#neonBg)" filter="url(#strongGlow)"/>
  <circle cx="60" cy="60" r="48" fill="url(#neonBg)" opacity="0.8"/>
  
  <!-- 脉冲光圈 -->
  <circle cx="60" cy="60" r="45" fill="none" stroke="#00ffff" stroke-width="1" opacity="0.4" class="pulse"/>
  
  <!-- 酷炫皇冠 -->
  <g transform="translate(60, 38)" filter="url(#glow)">
    <!-- 皇冠主体 - 3D效果 -->
    <path d="M-24,14 L-20,-2 L-14,6 L-8,0 L0,-6 L8,0 L14,6 L20,-2 L24,14 L22,22 L-22,22 Z" 
          fill="url(#crownNeon)" stroke="#ffff00" stroke-width="1"/>
    
    <!-- 皇冠背面阴影 -->
    <path d="M-23,15 L-19,-1 L-13,7 L-7,1 L1,-5 L9,1 L15,7 L21,-1 L25,15 L23,23 L-21,23 Z" 
          fill="#ff3300" opacity="0.6"/>
    
    <!-- 皇冠底座发光 -->
    <rect x="-22" y="22" width="44" height="5" rx="2" fill="url(#crownNeon)" filter="url(#glow)"/>
    
    <!-- 宝石 - 发光效果 -->
    <circle cx="0" cy="4" r="4" fill="#ffff00" filter="url(#strongGlow)" class="sparkle"/>
    <circle cx="-12" cy="8" r="3" fill="#00ffff" filter="url(#glow)" class="sparkle"/>
    <circle cx="12" cy="8" r="3" fill="#00ffff" filter="url(#glow)" class="sparkle"/>
    <circle cx="-18" cy="2" r="2" fill="#ff00ff" class="sparkle"/>
    <circle cx="18" cy="2" r="2" fill="#ff00ff" class="sparkle"/>
    
    <!-- 皇冠尖刺发光 -->
    <line x1="0" y1="-6" x2="0" y2="-10" stroke="#ffff00" stroke-width="2" filter="url(#glow)"/>
    <line x1="-14" y1="6" x2="-16" y2="2" stroke="#ffff00" stroke-width="1.5" filter="url(#glow)"/>
    <line x1="14" y1="6" x2="16" y2="2" stroke="#ffff00" stroke-width="1.5" filter="url(#glow)"/>
  </g>
  
  <!-- 科技感购物图标 -->
  <g transform="translate(60, 78)" filter="url(#glow)">
    <!-- 全息购物袋 -->
    <path d="M-14,-10 L-16,-8 L-16,6 C-16,9 -13,12 -10,12 L10,12 C13,12 16,9 16,6 L16,-8 L14,-10 Z" 
          fill="none" stroke="#00ffff" stroke-width="2.5"/>
    <path d="M-14,-10 L-16,-8 L-16,6 C-16,9 -13,12 -10,12 L10,12 C13,12 16,9 16,6 L16,-8 L14,-10 Z" 
          fill="#00ffff" opacity="0.1"/>
    
    <!-- 手柄发光 -->
    <path d="M-10,-10 C-10,-15 -5,-20 0,-20 C5,-20 10,-15 10,-10" 
          fill="none" stroke="#00ffff" stroke-width="3" stroke-linecap="round" filter="url(#glow)"/>
    
    <!-- 全息扫描线 -->
    <line x1="-12" y1="-2" x2="12" y2="-2" stroke="#00ff00" stroke-width="1" opacity="0.8" class="pulse"/>
    <line x1="-12" y1="2" x2="12" y2="2" stroke="#00ff00" stroke-width="1" opacity="0.6" class="pulse"/>
    <line x1="-12" y1="6" x2="12" y2="6" stroke="#00ff00" stroke-width="1" opacity="0.4" class="pulse"/>
    
    <!-- 数据点 -->
    <circle cx="-6" cy="0" r="1.5" fill="#00ff00" class="sparkle"/>
    <circle cx="6" cy="0" r="1.5" fill="#00ff00" class="sparkle"/>
    <circle cx="0" cy="4" r="1" fill="#ffff00" class="sparkle"/>
  </g>
  
  <!-- 粒子效果 -->
  <g class="sparkle">
    <circle cx="25" cy="25" r="1" fill="#00ffff" opacity="0.8"/>
    <circle cx="95" cy="35" r="1.5" fill="#ff00ff" opacity="0.6"/>
    <circle cx="20" cy="95" r="1" fill="#ffff00" opacity="0.7"/>
    <circle cx="100" cy="90" r="1.5" fill="#00ff00" opacity="0.5"/>
    <circle cx="85" cy="15" r="1" fill="#ff6b35" opacity="0.9"/>
  </g>
  
  <!-- 能量波纹 -->
  <circle cx="60" cy="60" r="35" fill="none" stroke="#00ffff" stroke-width="0.5" opacity="0.3" class="pulse"/>
  <circle cx="60" cy="60" r="25" fill="none" stroke="#ff00ff" stroke-width="0.5" opacity="0.2" class="pulse" style="animation-delay: 0.5s"/>
</svg>